<svg width="23" height="20" viewBox="0 0 23 20" fill="none" xmlns="http://www.w3.org/2000/svg">
<path fill-rule="evenodd" clip-rule="evenodd" d="M11.7528 7.03369C11.7528 6.33986 11.571 5.74515 11.2087 5.24733C10.6047 4.43657 9.58081 4.02116 8.13358 4H2.39997V15.7049H7.74637C8.3492 15.7049 8.90687 15.6537 9.42277 15.5479C9.93867 15.4409 10.3846 15.246 10.7628 14.9598C11.0992 14.7104 11.3791 14.403 11.6026 14.0388C11.956 13.4886 12.1321 12.8661 12.1321 12.1723C12.1321 11.4996 11.9774 10.9272 11.6704 10.4572C11.3599 9.98609 10.9039 9.64196 10.2988 9.42367C10.6973 9.22321 10.9987 9.00047 11.2041 8.75769C11.571 8.32335 11.7528 7.74757 11.7528 7.03369ZM19.7532 6.00216H14.6687V4.54546H19.7532V6.00216ZM15.2614 10.5207C15.3449 9.95716 15.5492 9.51057 15.8732 9.18092C16.1972 8.85127 16.6555 8.68644 17.2426 8.68644C17.7844 8.68644 18.2371 8.84124 18.6051 9.15196C18.9686 9.46491 19.1741 9.9193 19.2158 10.5207H15.2614ZM19.305 7.22486C19.918 7.49437 20.4226 7.92203 20.82 8.5056C21.1824 9.02013 21.4149 9.61707 21.521 10.2953C21.5831 10.6918 21.608 11.2664 21.5978 12.0137H15.2049C15.2433 12.8813 15.5458 13.4905 16.1238 13.8391C16.4738 14.0562 16.8949 14.1654 17.3893 14.1654C17.9097 14.1654 18.3353 14.0329 18.6616 13.7689C18.8411 13.6252 18.9991 13.427 19.1346 13.1731H21.477C21.4149 13.6854 21.1304 14.2077 20.627 14.7378C19.8412 15.5787 18.7406 15.9996 17.3261 15.9996C16.1577 15.9996 15.127 15.6455 14.2363 14.9349C13.3411 14.2255 12.8963 13.0695 12.8963 11.4702C12.8963 9.97011 13.2994 8.81966 14.1043 8.01892C14.9114 7.22041 15.9556 6.81836 17.2414 6.81836C18.0057 6.81836 18.6932 6.95423 19.305 7.22486ZM4.76499 13.6735V10.5519H7.68654C8.19454 10.5563 8.59078 10.6231 8.873 10.7501C9.37761 10.9784 9.62823 11.396 9.62823 12.0063C9.62823 12.7258 9.36858 13.2113 8.84817 13.4675C8.56256 13.6045 8.16068 13.6735 7.6459 13.6735H4.76499ZM4.76499 6.03214V8.61479H7.65042C8.16406 8.61479 8.58288 8.5179 8.90574 8.32411C9.22634 8.13033 9.38777 7.78732 9.38777 7.29729C9.38777 6.75047 9.17554 6.39075 8.75108 6.21479C8.38307 6.09339 7.91571 6.03214 7.34788 6.03214H4.76499Z" fill="#080A0E"/>
</svg>
