<svg width="52" height="52" viewBox="0 0 52 52" fill="none" xmlns="http://www.w3.org/2000/svg">
<path d="M30.5186 45.7502L30.9117 39.1996L31.9972 37.3467C31.9972 37.3467 29.5266 38.3573 25.3905 38.3573C21.2543 38.3573 18.8211 37.3653 18.8211 37.3653L20.0377 39.3867L20.468 45.7502C20.468 46.4324 22.7179 46.9854 25.4933 46.9854C28.2687 46.9854 30.5186 46.4324 30.5186 45.7502ZM29.2785 15.1599L30.1037 11.8984L34.6731 7.09025L33.4688 6.06445L28.6311 11.1863L27.673 15.083C26.9519 15.0588 26.2305 15.0468 25.5091 15.047C20.414 15.047 16.2837 15.6277 16.2837 16.3438C16.2837 17.06 20.414 17.6406 25.5091 17.6406C30.604 17.6406 34.7343 17.06 34.7343 16.3438C34.7343 15.8164 32.4942 15.3625 29.2785 15.1599Z" fill="#D34A47"/>
<path d="M28.7985 16.9867C28.7985 16.9867 28.6198 17.0267 28.0942 17.029C27.5683 17.0311 27.195 17.0256 27.0463 16.8901C27.0063 16.8537 26.9844 16.7815 26.9846 16.7326C26.9851 16.6395 27.0511 16.5847 27.1353 16.5504L27.2149 16.6752C27.1803 16.6872 27.1605 16.7013 27.1604 16.7164C27.1601 16.7871 27.6981 16.8355 28.1095 16.8303C28.521 16.8252 29.0182 16.7913 29.0187 16.7216C29.0187 16.7005 28.9811 16.6807 28.9157 16.665L28.9949 16.541C29.1016 16.5741 29.1946 16.6381 29.1944 16.7488C29.1934 16.937 28.9539 16.9656 28.7985 16.9867Z" fill="white"/>
<path d="M34.6641 7.09971C34.779 6.967 34.6047 6.62756 34.2747 6.34165C33.9446 6.05588 33.5839 5.93172 33.4688 6.06442C33.3538 6.19713 33.5282 6.53658 33.8583 6.82234C34.1883 7.10819 34.5492 7.23249 34.6641 7.09971ZM30.2988 29.7497C30.1905 28.7078 32.5778 27.1988 31.9652 27.1504C30.6462 27.2259 29.9898 28.6961 29.3262 30.236C29.083 30.8004 28.2509 33.2069 27.7051 32.9107C27.1595 32.6145 28.4125 30.6356 28.7637 29.4604C28.3585 29.7575 26.8724 30.9121 26.4894 29.8308C25.8737 30.3537 24.558 30.637 24.7064 29.2634C24.3789 29.8436 23.6437 30.6537 22.7612 30.3171C21.6024 29.8751 23.4327 26.1836 23.8879 26.3699C24.3431 26.556 23.796 27.397 23.6527 27.7235C23.3376 28.4422 22.9736 29.3456 23.2168 29.5306C23.6334 29.8474 24.7671 28.3319 24.7923 28.2986C25.0043 28.0185 25.6084 26.1859 26.0952 26.3963C26.5821 26.6067 24.8809 29.0264 25.5169 29.5066C25.6452 29.6035 26.1701 29.4468 26.4894 29.1014C26.696 28.8779 26.6249 28.3829 27.3136 26.7406C28.0023 25.0984 28.6161 23.0531 29.0884 23.2089C29.5606 23.3647 29.1714 24.4144 29.0019 24.8057C28.2069 26.6423 26.832 29.6765 27.4804 29.4468C28.1288 29.2172 28.4664 29.2037 29.1013 28.4607C29.7362 27.7177 29.707 26.4939 30.1302 26.5199C30.5535 26.546 30.4824 26.9384 30.3798 27.2372C30.7963 26.7605 32.3542 25.7567 32.7303 26.7509C33.1757 27.9279 30.5014 29.6281 31.1682 29.5414C31.8183 29.4569 32.8716 28.7898 33.3213 28.1833L34.5591 17.0549C34.5591 17.0549 33.3135 18.0857 25.3892 18.0857C17.4649 18.0857 16.3481 17.0763 16.3481 17.0763L17.402 27.2339C17.9613 25.6441 19.2896 22.4284 21.3834 22.5364C22.3358 22.5855 23.6072 24.4194 22.5181 24.4815C22.0571 24.5078 22.0103 23.5661 21.4645 23.4279C21.0705 23.328 20.5221 23.6483 20.1677 23.9953C19.4608 24.687 17.9406 27.4164 18.1414 28.7772C18.3973 30.512 20.5354 28.1744 20.8971 27.4803C21.1519 26.9914 21.324 25.543 21.8812 25.695C22.4385 25.8469 21.8326 27.3418 21.4287 28.6634C20.9749 30.1474 20.7364 31.7129 20.1677 31.5328C19.5989 31.3529 20.5254 29.437 20.4918 29.1014C19.9572 29.5946 18.9724 30.8433 17.7124 30.2252L18.3669 36.533C18.3669 36.533 20.1063 37.9074 25.3463 37.9074C30.5862 37.9074 32.3901 36.5544 32.3901 36.5544L33.2028 29.2486C32.5379 29.896 30.4335 31.0457 30.2988 29.7497Z" fill="#D34A47"/>
</svg>
