<svg width="52" height="52" viewBox="0 0 52 52" fill="none" xmlns="http://www.w3.org/2000/svg">
<path d="M25.5001 6.00684L43.5967 16.2433V36.7232L25.5001 46.9597L7.40356 36.7232V16.2433L25.5001 6.00684Z" fill="white"/>
<path d="M40.3667 36.013L26.1011 44.0916V37.809L34.9923 32.9127L40.3667 36.013ZM41.3432 35.1321V18.2511L36.1259 21.2626V32.1205L41.3432 35.1321ZM10.5791 36.013L24.8446 44.0848V37.8022L15.9534 32.9127L10.5791 36.013ZM9.60254 35.1321V18.2511L14.8198 21.2626V32.1205L9.60254 35.1321ZM10.2103 17.1584L24.8446 8.88184V14.9595L15.4686 20.1154L15.3934 20.1563L10.2103 17.1584ZM40.7286 17.1584L26.1011 8.88184V14.9595L35.4704 20.1222L35.5455 20.1632L40.7286 17.1584Z" fill="#8ED6FB"/>
<path d="M24.8445 36.375L16.0762 31.547V21.9934L24.8445 27.0536V36.375ZM26.101 36.375L34.8693 31.5538V21.9934L26.101 27.0536V36.375ZM16.6635 20.8871L25.4727 16.0454L34.2752 20.8871L25.4727 25.9678L16.6635 20.8871Z" fill="#1C78C0"/>
</svg>
