<svg width="52" height="52" viewBox="0 0 52 52" fill="none" xmlns="http://www.w3.org/2000/svg">
<rect x="6.75" y="6.75" width="38.5" height="38.5" fill="#FFCA28"/>
<path d="M30.125 38.7704L32.9596 36.8948C33.1817 37.5927 34.5885 39.2502 36.3654 39.2502C38.1423 39.2502 38.9673 38.2797 38.9673 37.6363C38.9673 35.8829 37.1529 35.2647 36.2814 34.9678C36.1393 34.9194 36.0223 34.8795 35.9423 34.8447C35.9013 34.8268 35.8392 34.8031 35.7596 34.7727C34.7903 34.4024 31.2144 33.0362 31.2144 29.076C31.2144 24.714 35.424 24.2124 36.376 24.2124C36.9988 24.2124 39.9933 24.2887 41.4846 27.0913L38.7346 29.0106C38.1317 27.7892 37.1301 27.3857 36.5135 27.3857C34.9904 27.3857 34.6731 28.5023 34.6731 29.0106C34.6731 30.4367 36.3278 31.0759 37.7251 31.6157C38.0906 31.7569 38.4386 31.8913 38.7346 32.0312C40.2577 32.7509 42.5 33.9286 42.5 37.6363C42.5 39.4934 40.9424 42.4999 37.0212 42.4999C31.7538 42.4999 30.3577 39.3375 30.125 38.7704Z" fill="#3E3E3E"/>
<path d="M16.375 39.1429L19.3294 37.2682C19.5609 37.9658 20.4605 39.2519 21.7657 39.2519C23.071 39.2519 23.739 37.9113 23.739 37.2682V24.6249H27.3725V37.2682C27.4313 39.0121 26.4641 42.4999 22.1957 42.4999C18.2711 42.4999 16.6396 40.1674 16.375 39.1429Z" fill="#3E3E3E"/>
</svg>
