<svg width="76" height="69" viewBox="0 0 76 69" fill="none" xmlns="http://www.w3.org/2000/svg">
<path fill-rule="evenodd" clip-rule="evenodd" d="M44.0486 2.76077C44.2796 2.09655 44.9058 1.65137 45.6091 1.65137H56.7518C57.5249 1.65137 58.1946 2.18749 58.3639 2.94185L72.4497 65.7245C72.6814 66.7572 71.896 67.7383 70.8376 67.7383H52.8696C52.4134 67.7383 52.0435 67.3685 52.0435 66.9122C52.0435 66.456 52.4134 66.0862 52.8696 66.0862L70.8376 66.0862L56.7518 3.30354L45.6091 3.30354L42.6906 11.6941C42.4596 12.3584 41.8334 12.8035 41.1301 12.8035H31.8165C31.2829 12.8035 30.7822 12.5459 30.472 12.1117L28.901 9.91224H17.7609C17.3047 9.91224 16.9348 9.54239 16.9348 9.08615C16.9348 8.62991 17.3047 8.26006 17.7609 8.26006H28.901C29.4346 8.26006 29.9353 8.51775 30.2454 8.95193L31.8165 11.1514L41.1301 11.1514L44.0486 2.76077Z" fill="#00EFE1"/>
<path fill-rule="evenodd" clip-rule="evenodd" d="M22.6237 21.7573C22.9338 21.3231 23.4345 21.0654 23.9681 21.0654H46.4004C47.5005 21.0654 48.2933 22.1203 47.9874 23.177L44.0552 36.7611L52.2102 36.7611C52.9811 36.7611 53.6496 37.2943 53.821 38.0459L59.0441 60.947C59.1455 61.3918 58.8672 61.8346 58.4223 61.9361C57.9775 62.0375 57.5347 61.7592 57.4332 61.3143L52.2102 38.4133H44.0552C42.9551 38.4133 42.1623 37.3584 42.4682 36.3017L46.4004 22.7176L23.9681 22.7176L22.3971 24.917C22.087 25.3512 21.5862 25.6089 21.0527 25.6089H3.30387C2.84763 25.6089 2.47778 25.2391 2.47778 24.7828C2.47778 24.3266 2.84763 23.9567 3.30387 23.9567H21.0527L22.6237 21.7573Z" fill="#00EFE1"/>
<path fill-rule="evenodd" clip-rule="evenodd" d="M43.6396 45.8935C44.0707 46.0431 44.2989 46.5137 44.1493 46.9447L37.3203 66.6285C37.0896 67.2934 36.4631 67.7392 35.7593 67.7392H28.9854C28.3854 67.7392 27.8325 67.4139 27.5411 66.8894L25.948 64.0218H10.7384C10.2822 64.0218 9.91235 63.6519 9.91235 63.1957C9.91235 62.7395 10.2822 62.3696 10.7384 62.3696H25.948C26.548 62.3696 27.1009 62.6949 27.3923 63.2194L28.9854 66.087L35.7593 66.087L42.5884 46.4032C42.738 45.9722 43.2086 45.744 43.6396 45.8935Z" fill="#00EFE1"/>
<path fill-rule="evenodd" clip-rule="evenodd" d="M11.1519 36.7607C11.1519 36.3044 11.5217 35.9346 11.9779 35.9346H32.6616C33.8237 35.9346 34.6227 37.1025 34.2015 38.1856L29.0614 51.403C28.8144 52.038 28.2029 52.4563 27.5215 52.4563H14.4562C14 52.4563 13.6301 52.0865 13.6301 51.6302C13.6301 51.174 14 50.8041 14.4562 50.8041H27.5215L32.6616 37.5867H11.9779C11.5217 37.5867 11.1519 37.2169 11.1519 36.7607Z" fill="#00EFE1"/>
<path fill-rule="evenodd" clip-rule="evenodd" d="M50.3696 26.0324C50.6392 25.9829 50.9063 26.1233 50.9662 26.346L52.966 33.7808C53.0259 34.0035 52.856 34.2241 52.5864 34.2736C52.3169 34.3231 52.0498 34.1827 51.9899 33.96L49.99 26.5252C49.9301 26.3025 50.1001 26.0819 50.3696 26.0324Z" fill="#00EFE1"/>
<path fill-rule="evenodd" clip-rule="evenodd" d="M37.764 26.9601C38.0751 27.0989 38.2817 27.3963 38.2257 27.6244L36.9154 32.9554C36.8593 33.1835 36.5617 33.256 36.2506 33.1172C35.9396 32.9785 35.7329 32.6811 35.789 32.4529L37.0993 27.122C37.1554 26.8938 37.453 26.8214 37.764 26.9601Z" fill="#00EFE1"/>
<path d="M18.3838 9.02917C18.3838 9.71352 17.829 10.2683 17.1446 10.2683C16.4603 10.2683 15.9055 9.71352 15.9055 9.02917C15.9055 8.34482 16.4603 7.79004 17.1446 7.79004C17.829 7.79004 18.3838 8.34482 18.3838 9.02917Z" fill="white"/>
<path d="M3.74096 24.7264C3.74096 25.4108 3.18618 25.9656 2.50183 25.9656C1.81747 25.9656 1.2627 25.4108 1.2627 24.7264C1.2627 24.0421 1.81747 23.4873 2.50183 23.4873C3.18618 23.4873 3.74096 24.0421 3.74096 24.7264Z" fill="white"/>
<path d="M12.5989 36.7606C12.5989 37.445 12.0441 37.9997 11.3597 37.9997C10.6754 37.9997 10.1206 37.445 10.1206 36.7606C10.1206 36.0763 10.6754 35.5215 11.3597 35.5215C12.0441 35.5215 12.5989 36.0763 12.5989 36.7606Z" fill="white"/>
<path d="M15.094 51.6288C15.094 52.3131 14.5392 52.8679 13.8549 52.8679C13.1705 52.8679 12.6157 52.3131 12.6157 51.6288C12.6157 50.9444 13.1705 50.3896 13.8549 50.3896C14.5392 50.3896 15.094 50.9444 15.094 51.6288Z" fill="white"/>
<path d="M11.7053 63.2069C11.7053 63.8913 11.1505 64.446 10.4662 64.446C9.78183 64.446 9.22705 63.8913 9.22705 63.2069C9.22705 62.5226 9.78183 61.9678 10.4662 61.9678C11.1505 61.9678 11.7053 62.5226 11.7053 63.2069Z" fill="white"/>
<path d="M53.3384 66.9139C53.3384 67.5983 52.7836 68.1531 52.0992 68.1531C51.4149 68.1531 50.8601 67.5983 50.8601 66.9139C50.8601 66.2296 51.4149 65.6748 52.0992 65.6748C52.7836 65.6748 53.3384 66.2296 53.3384 66.9139Z" fill="white"/>
</svg>
