<svg width="52" height="52" viewBox="0 0 52 52" fill="none" xmlns="http://www.w3.org/2000/svg">
<path fill-rule="evenodd" clip-rule="evenodd" d="M25.5 26.5C25.5 23.6695 27.7945 21.375 30.625 21.375C33.4555 21.375 35.75 23.6695 35.75 26.5C35.75 29.3305 33.4555 31.625 30.625 31.625C27.7945 31.625 25.5 29.3305 25.5 26.5Z" fill="#1ABCFE"/>
<path fill-rule="evenodd" clip-rule="evenodd" d="M15.25 36.75C15.25 33.9195 17.5445 31.625 20.375 31.625H25.5V36.75C25.5 39.5805 23.2055 41.875 20.375 41.875C17.5445 41.875 15.25 39.5805 15.25 36.75Z" fill="#0ACF83"/>
<path fill-rule="evenodd" clip-rule="evenodd" d="M25.5 11.125V21.375H30.625C33.4555 21.375 35.75 19.0805 35.75 16.25C35.75 13.4195 33.4555 11.125 30.625 11.125H25.5Z" fill="#FF7262"/>
<path fill-rule="evenodd" clip-rule="evenodd" d="M15.25 16.25C15.25 19.0805 17.5445 21.375 20.375 21.375H25.5V11.125H20.375C17.5445 11.125 15.25 13.4195 15.25 16.25Z" fill="#F24E1E"/>
<path fill-rule="evenodd" clip-rule="evenodd" d="M15.25 26.5C15.25 29.3305 17.5445 31.625 20.375 31.625H25.5V21.375H20.375C17.5445 21.375 15.25 23.6695 15.25 26.5Z" fill="#A259FF"/>
</svg>
