<svg width="52" height="52" viewBox="0 0 52 52" fill="none" xmlns="http://www.w3.org/2000/svg">
<path d="M16.375 22.8377C17.6583 17.7044 20.8667 15.1377 26 15.1377C33.7 15.1377 34.6625 20.9127 38.5125 21.8752C41.0792 22.5169 43.325 21.5544 45.25 18.9877C43.9667 24.121 40.7583 26.6877 35.625 26.6877C27.925 26.6877 26.9625 20.9127 23.1125 19.9502C20.5458 19.3085 18.3 20.271 16.375 22.8377ZM6.75 34.3877C8.03333 29.2544 11.2417 26.6877 16.375 26.6877C24.075 26.6877 25.0375 32.4627 28.8875 33.4252C31.4542 34.0669 33.7 33.1044 35.625 30.5377C34.3417 35.671 31.1333 38.2377 26 38.2377C18.3 38.2377 17.3375 32.4627 13.4875 31.5002C10.9208 30.8585 8.675 31.821 6.75 34.3877Z" fill="#44A8B3"/>
</svg>
