<svg width="52" height="52" viewBox="0 0 52 52" fill="none" xmlns="http://www.w3.org/2000/svg">
<path d="M43.327 28.7126C41.8198 28.7146 40.3328 29.0596 38.9783 29.7215C38.5543 29.0171 38.2268 28.2587 38.0047 27.4668C37.8771 26.8461 37.8476 26.2092 37.9173 25.5793C38.0638 24.8862 38.2539 24.203 38.4864 23.5339C38.4778 23.4464 38.3818 23.0329 37.4168 23.0191C36.4518 23.0054 35.6204 23.2027 35.5313 23.4584C35.3637 23.9254 35.2291 24.4036 35.1285 24.8895C34.3298 26.862 33.3466 28.7545 32.1922 30.5417C31.5454 29.4803 31.2794 28.2298 31.438 26.9966C31.5845 26.3035 31.7746 25.6204 32.0071 24.9513C31.9985 24.8638 31.9025 24.4502 30.9375 24.4365C29.9724 24.4228 29.1411 24.6201 29.0519 24.8758C28.9628 25.1314 28.8497 25.7337 28.6491 26.3068C28.4486 26.88 26.1071 32.117 25.4934 33.4674C25.178 34.1537 24.9055 34.7131 24.7135 35.0906C24.7044 35.1152 24.6929 35.1387 24.6792 35.161C24.5078 35.4853 24.417 35.662 24.417 35.662V35.6706C24.285 35.9074 24.1444 36.1271 24.0742 36.1271C23.9516 35.6368 23.9575 35.1232 24.0913 34.6359C24.4341 32.8188 25.274 29.9944 25.2655 29.8965C25.2655 29.8434 25.4232 29.3526 24.7221 29.0986C24.5595 29.0212 24.3769 28.9961 24.1995 29.0268C24.022 29.0576 23.8585 29.1426 23.7313 29.2702C23.6696 29.2702 23.6268 29.4195 23.6268 29.4195C23.6268 29.4195 24.3896 26.2434 22.1715 26.2434C21.3077 26.4173 20.4874 26.7624 19.7589 27.2583C19.0303 27.7543 18.4082 28.3911 17.9291 29.1313C17.3326 29.4556 16.0624 30.1488 14.7031 30.8952C14.1889 31.1852 13.6506 31.4752 13.1518 31.7532C13.1176 31.7189 13.0816 31.6742 13.0473 31.6399C10.3476 28.7606 5.38521 26.729 5.59947 22.8767C5.67832 21.4731 6.15999 17.7873 15.1282 13.3105C22.5092 9.66929 28.3834 10.6782 29.3999 12.9158C30.8552 16.1109 26.2528 22.0428 18.6267 22.9025C17.783 23.0738 16.9117 23.0531 16.0771 22.842C15.2425 22.6308 14.4659 22.2345 13.8049 21.6824C13.4021 21.2432 13.3404 21.2174 13.1913 21.3049C12.9462 21.4371 13.1038 21.8317 13.1913 22.0599C13.4822 22.587 13.8757 23.0503 14.3485 23.4225C14.8213 23.7948 15.3639 24.0684 15.9441 24.2272C18.9442 24.8761 22.0721 24.5658 24.8866 23.34C29.5147 21.5503 33.1144 16.5741 32.0585 12.4062C30.9974 8.17644 23.985 6.78139 17.348 9.14593C13.1908 10.5462 9.34965 12.7519 6.04343 15.6373C2.38723 19.0605 1.80957 22.0342 2.04612 23.2817C2.90318 27.7053 8.98998 30.5829 11.4257 32.7192C11.3023 32.7896 11.1892 32.8514 11.0932 32.9028C9.87446 33.5086 5.22922 35.94 4.06534 38.5105C2.75062 41.4275 4.27618 43.5124 5.28408 43.7938C6.80279 44.1577 8.39712 44.0378 9.84448 43.4509C11.2919 42.864 12.52 41.8392 13.3575 40.5198C14.0707 39.4254 14.5091 38.1747 14.6353 36.8741C14.7616 35.5736 14.572 34.2618 14.0826 33.0504C14.0743 33.0308 14.0627 33.0128 14.0483 32.9972L15.0031 32.4361C15.6253 32.0672 16.239 31.7257 16.7652 31.4443C16.4083 32.4746 16.1989 33.5503 16.143 34.6394C16.0218 36.3085 16.5321 37.9623 17.5725 39.2723C17.7309 39.4088 17.9146 39.5124 18.1133 39.5772C18.3119 39.642 18.5213 39.6667 18.7296 39.6498C19.758 39.6498 20.2294 38.7919 20.7454 37.7726C21.3761 36.5269 21.9452 35.0786 21.9452 35.0786C21.9452 35.0786 21.2356 38.9926 23.164 38.9926C23.865 38.9926 24.5747 38.0798 24.8918 37.6199V37.6285C24.8918 37.6285 24.9089 37.6027 24.9449 37.541L25.0581 37.3574V37.3402C25.3392 36.8495 25.97 35.7341 26.9076 33.8826C28.1177 31.4958 29.2833 28.5118 29.2833 28.5118C29.3958 29.1676 29.5509 29.8153 29.7479 30.4508C30.0302 31.2211 30.3641 31.9715 30.7472 32.6969C30.4661 33.0916 30.2912 33.3112 30.2912 33.3112L30.2998 33.3198C30.0718 33.6184 29.8267 33.9427 29.5542 34.2584C28.7433 35.1509 27.9909 36.0949 27.3018 37.0845C27.1994 37.2508 27.1642 37.4498 27.2034 37.6411C27.2426 37.8325 27.3532 38.0016 27.5127 38.1141C27.8735 38.3021 28.2848 38.37 28.6868 38.308C29.2927 38.2737 29.8884 38.1374 30.4489 37.9048C30.9906 37.7139 31.5016 37.4451 31.9659 37.1068C32.4446 36.7749 32.8298 36.3253 33.0847 35.8012C33.3396 35.2771 33.4554 34.6962 33.4212 34.1143C33.3673 33.3813 33.1803 32.6643 32.8693 31.9986C32.9567 31.875 33.0407 31.7532 33.1229 31.6296C34.0975 30.1735 34.9758 28.6551 35.7524 27.0842C35.8648 27.7399 36.02 28.3877 36.2169 29.0231C36.4498 29.6888 36.7364 30.3344 37.074 30.9536C35.9528 31.817 35.0698 32.952 34.5079 34.2516C33.956 35.8491 34.3845 36.568 35.1936 36.7345C35.6363 36.765 36.079 36.6743 36.474 36.472C37.0549 36.2808 37.6021 35.9994 38.0956 35.638C38.6159 35.3306 39.0517 34.8985 39.3638 34.3806C39.6759 33.8628 39.8544 33.2753 39.8834 32.6712C39.8445 32.0682 39.7085 31.4754 39.4806 30.9158C40.96 30.3372 42.5641 30.1527 44.1361 30.3804C48.3083 30.8712 49.1327 33.4777 48.975 34.5759C48.9011 34.9652 48.7447 35.3341 48.5165 35.6579C48.2882 35.9817 47.9934 36.2528 47.6517 36.4531C47.3621 36.6367 47.2661 36.6985 47.2918 36.8306C47.3261 37.0245 47.4632 37.0142 47.7117 36.9799C48.3405 36.7842 48.8953 36.4024 49.303 35.8847C49.7106 35.367 49.9518 34.7377 49.9949 34.08C50.1269 31.5061 47.6723 28.6834 43.3322 28.7091L43.327 28.7126ZM11.136 39.5709C9.75105 41.0809 7.82267 41.6506 6.98962 41.1684C6.09485 40.6537 6.44624 38.423 8.14664 36.8237C9.15531 35.9148 10.2455 35.1009 11.4035 34.3923C11.6057 34.2687 11.904 34.0937 12.2605 33.8775L12.3565 33.8243L12.5673 33.6922C12.8711 34.7111 12.8987 35.7925 12.6471 36.8256C12.3956 37.8587 11.8741 38.8062 11.136 39.5709ZM21.2167 32.7072C20.7351 33.8826 19.7272 36.8941 19.1135 36.7259C18.5873 36.5852 18.2565 34.303 19.009 32.0483C19.3889 30.9629 19.9423 29.9465 20.6476 29.0386C21.4019 28.1961 22.2349 27.9147 22.4355 28.2578C22.2525 29.7934 21.8417 31.293 21.2167 32.7072ZM29.5353 36.6916C29.333 36.7963 29.1411 36.8632 29.0536 36.8151C28.9919 36.7808 29.1411 36.6435 29.1411 36.6435C29.1411 36.6435 30.185 35.5196 30.5963 35.0117C30.8329 34.7131 31.1106 34.3631 31.4123 33.9667V34.08C31.4123 35.4218 30.1147 36.3261 29.537 36.695L29.5353 36.6916ZM35.9529 35.2262C35.8038 35.1215 35.8295 34.7698 36.33 33.6733C36.6781 32.9691 37.1643 32.3423 37.7596 31.8304C37.8509 32.0901 37.8984 32.3633 37.9002 32.6386C37.9069 33.2246 37.7197 33.7965 37.3678 34.2648C37.0159 34.7332 36.519 35.0719 35.9547 35.2279L35.9529 35.2262Z" fill="#CD6799"/>
</svg>
