<svg width="52" height="52" viewBox="0 0 52 52" fill="none" xmlns="http://www.w3.org/2000/svg">
<path d="M11.3284 42.2931L8.79776 10.6595C8.70466 9.49576 9.62394 8.5 10.7914 8.5H40.2086C41.3761 8.5 42.2953 9.49576 42.2022 10.6595L39.6716 42.2931C39.6058 43.115 39.0424 43.8123 38.2526 44.0492L26.0747 47.7026C25.6998 47.8151 25.3002 47.8151 24.9253 47.7026L12.7474 44.0492C11.9576 43.8123 11.3942 43.115 11.3284 42.2931Z" fill="#1E78FE"/>
<path d="M39.5625 11.0312H25.5V45.4844L36.75 41.9688L39.5625 11.0312Z" fill="#1E78FE"/>
<path d="M30.4219 28.6094H16.3594L15.6562 23.6875L26.9062 20.1719H15.6562L14.9531 15.9531H36.75L36.0469 20.875L26.9062 24.3906H35.3438L33.9375 37.75L25.5 40.5625L17.0625 37.75L16.3594 30.7188H20.5781L21.2813 34.2344L25.5 35.6406L29.7188 34.2344L30.4219 28.6094Z" fill="white"/>
</svg>
