<svg width="52" height="52" viewBox="0 0 52 52" fill="none" xmlns="http://www.w3.org/2000/svg">
<path d="M11.3284 42.0118L8.79776 10.3782C8.70466 9.21451 9.62394 8.21875 10.7914 8.21875H40.2086C41.3761 8.21875 42.2953 9.21451 42.2022 10.3782L39.6716 42.0118C39.6058 42.8337 39.0424 43.531 38.2526 43.768L26.0747 47.4213C25.6998 47.5338 25.3002 47.5338 24.9253 47.4213L12.7474 43.768C11.9576 43.531 11.3942 42.8337 11.3284 42.0118Z" fill="#E56825"/>
<path d="M39.5625 11.0312H25.5V45.4844L36.75 41.9688L39.5625 11.0312Z" fill="#E54B25"/>
<path d="M16.3594 28.6094L14.9531 15.25H36.75L36.0469 19.4688H19.1719L19.875 24.3906H35.3438L33.9375 37.75L25.5 40.5625L17.0625 37.75L16.3594 30.7188H20.5781L21.2812 34.2344L25.5 35.6406L29.7188 34.2344L30.4219 28.6094H16.3594Z" fill="white"/>
</svg>
