<svg width="22" height="19" viewBox="0 0 22 19" fill="none" xmlns="http://www.w3.org/2000/svg">
<g clip-path="url(#clip0_323_90)">
<path d="M19.0117 2.00829C16.3948 3.05555 5.17386 7.5465 2.07352 8.7705C-0.00570792 9.55451 1.2115 10.2896 1.2115 10.2896C1.2115 10.2896 2.98637 10.8776 4.50794 11.3186C6.02929 11.7596 6.84069 11.2697 6.84069 11.2697L13.9912 6.61453C16.5269 4.94848 15.9184 6.32045 15.3097 6.90861C13.9912 8.18275 11.8105 10.1916 9.98484 11.8087C9.17344 12.4947 9.57904 13.0827 9.93422 13.3767C11.2527 14.4548 14.8535 16.6599 15.0562 16.8069C16.1275 17.5397 18.2348 18.5946 18.5553 16.3658L19.8231 8.67268C20.2289 6.07569 20.6345 3.67454 20.6851 2.98856C20.8374 1.32231 19.0117 2.00829 19.0117 2.00829Z" fill="#080A0E"/>
</g>
<defs>
<clipPath id="clip0_323_90">
<rect width="20.5714" height="18" fill="white" transform="translate(0.857422 0.428467)"/>
</clipPath>
</defs>
</svg>
